%TF.GenerationSoftware,KiCad,Pcbnew,(6.0.10)*%
%TF.CreationDate,2023-01-18T13:12:32+09:00*%
%TF.ProjectId,3kpad,336b7061-642e-46b6-9963-61645f706362,rev?*%
%TF.SameCoordinates,Original*%
%TF.FileFunction,Copper,L1,Top*%
%TF.FilePolarity,Positive*%
%FSLAX46Y46*%
G04 Gerber Fmt 4.6, Leading zero omitted, Abs format (unit mm)*
G04 Created by KiCad (PCBNEW (6.0.10)) date 2023-01-18 13:12:32*
%MOMM*%
%LPD*%
G01*
G04 APERTURE LIST*
%TA.AperFunction,ComponentPad*%
%ADD10O,1.000000X1.600000*%
%TD*%
%TA.AperFunction,ComponentPad*%
%ADD11O,1.000000X2.100000*%
%TD*%
%TA.AperFunction,ViaPad*%
%ADD12C,0.800000*%
%TD*%
%TA.AperFunction,Conductor*%
%ADD13C,0.250000*%
%TD*%
%TA.AperFunction,Conductor*%
%ADD14C,0.200000*%
%TD*%
G04 APERTURE END LIST*
D10*
%TO.P,USB1,13,SHIELD*%
%TO.N,GND*%
X130617500Y-55665000D03*
D11*
X130617500Y-59845000D03*
X139257500Y-59845000D03*
D10*
X139257500Y-55665000D03*
%TD*%
D12*
%TO.N,GND*%
X143360000Y-75092500D03*
X146030000Y-72422500D03*
%TO.N,+5V*%
X130837748Y-109912500D03*
X145160000Y-93152500D03*
X123440000Y-102622500D03*
X141304259Y-98116759D03*
X137349362Y-94681862D03*
X133289139Y-91632500D03*
%TO.N,VCC*%
X138347557Y-63550441D03*
X140713750Y-63532500D03*
%TO.N,COL0*%
X127995874Y-97776626D03*
X126405000Y-88517500D03*
%TO.N,COL1*%
X127850000Y-96499380D03*
X127846250Y-89606250D03*
%TO.N,COL2*%
X143270000Y-87172500D03*
X129270000Y-96792500D03*
X145960000Y-87172500D03*
X129270000Y-88502500D03*
%TO.N,D+*%
X134330000Y-63352500D03*
X136140000Y-63332500D03*
%TD*%
D13*
%TO.N,GND*%
X146030000Y-72422500D02*
X143360000Y-75092500D01*
D14*
%TO.N,+5V*%
X141304259Y-98116759D02*
X141304259Y-96948241D01*
X130830000Y-109912500D02*
X130837748Y-109912500D01*
X123440000Y-102622500D02*
X123540000Y-102622500D01*
X141304259Y-98106759D02*
X141304259Y-98116759D01*
X123540000Y-102622500D02*
X130830000Y-109912500D01*
X141304259Y-96948241D02*
X145100000Y-93152500D01*
X137349362Y-94681862D02*
X137349362Y-94181862D01*
X134800000Y-91632500D02*
X133289139Y-91632500D01*
X137879362Y-94681862D02*
X141304259Y-98106759D01*
X137349362Y-94181862D02*
X134800000Y-91632500D01*
X137349362Y-94681862D02*
X137879362Y-94681862D01*
X145100000Y-93152500D02*
X145160000Y-93152500D01*
D13*
%TO.N,VCC*%
X138365498Y-63532500D02*
X140713750Y-63532500D01*
X138347557Y-63550441D02*
X138365498Y-63532500D01*
D14*
%TO.N,COL0*%
X126405000Y-96185752D02*
X127995874Y-97776626D01*
X126405000Y-88517500D02*
X126405000Y-96185752D01*
%TO.N,COL1*%
X127850000Y-89610000D02*
X127850000Y-96499380D01*
X127846250Y-89606250D02*
X127850000Y-89610000D01*
%TO.N,COL2*%
X129270000Y-96792500D02*
X129270000Y-88502500D01*
X143270000Y-87172500D02*
X145960000Y-87172500D01*
%TO.N,D+*%
X134330000Y-63352500D02*
X134350000Y-63332500D01*
X134350000Y-63332500D02*
X136140000Y-63332500D01*
%TD*%
M02*
