%TF.GenerationSoftware,KiCad,Pcbnew,(6.0.10)*%
%TF.CreationDate,2023-01-18T13:12:32+09:00*%
%TF.ProjectId,3kpad,336b7061-642e-46b6-9963-61645f706362,rev?*%
%TF.SameCoordinates,Original*%
%TF.FileFunction,Profile,NP*%
%FSLAX46Y46*%
G04 Gerber Fmt 4.6, Leading zero omitted, Abs format (unit mm)*
G04 Created by KiCad (PCBNEW (6.0.10)) date 2023-01-18 13:12:32*
%MOMM*%
%LPD*%
G01*
G04 APERTURE LIST*
%TA.AperFunction,Profile*%
%ADD10C,0.100000*%
%TD*%
%ADD11C,0.150000*%
G04 APERTURE END LIST*
D10*
X101600000Y-59531250D02*
X101600000Y-117475000D01*
X101600000Y-117475000D02*
X168275000Y-117475000D01*
X101600000Y-59531250D02*
X128587500Y-59531250D01*
X128587500Y-59531250D02*
X128587500Y-53975000D01*
X168275000Y-59531250D02*
X141287500Y-59531250D01*
X168275000Y-59531250D02*
X168275000Y-117475000D01*
X141287500Y-53975000D02*
X128587500Y-53975000D01*
X141287500Y-59531250D02*
X141287500Y-53975000D01*
D11*
X110474702Y-47610119D02*
X110522321Y-47562500D01*
X110617559Y-47514880D01*
X110855654Y-47514880D01*
X110950892Y-47562500D01*
X110998511Y-47610119D01*
X111046130Y-47705357D01*
X111046130Y-47800595D01*
X110998511Y-47943452D01*
X110427083Y-48514880D01*
X111046130Y-48514880D01*
X111903273Y-47514880D02*
X111712797Y-47514880D01*
X111617559Y-47562500D01*
X111569940Y-47610119D01*
X111474702Y-47752976D01*
X111427083Y-47943452D01*
X111427083Y-48324404D01*
X111474702Y-48419642D01*
X111522321Y-48467261D01*
X111617559Y-48514880D01*
X111808035Y-48514880D01*
X111903273Y-48467261D01*
X111950892Y-48419642D01*
X111998511Y-48324404D01*
X111998511Y-48086309D01*
X111950892Y-47991071D01*
X111903273Y-47943452D01*
X111808035Y-47895833D01*
X111617559Y-47895833D01*
X111522321Y-47943452D01*
X111474702Y-47991071D01*
X111427083Y-48086309D01*
X112427083Y-48419642D02*
X112474702Y-48467261D01*
X112427083Y-48514880D01*
X112379464Y-48467261D01*
X112427083Y-48419642D01*
X112427083Y-48514880D01*
X112950892Y-48514880D02*
X113141369Y-48514880D01*
X113236607Y-48467261D01*
X113284226Y-48419642D01*
X113379464Y-48276785D01*
X113427083Y-48086309D01*
X113427083Y-47705357D01*
X113379464Y-47610119D01*
X113331845Y-47562500D01*
X113236607Y-47514880D01*
X113046130Y-47514880D01*
X112950892Y-47562500D01*
X112903273Y-47610119D01*
X112855654Y-47705357D01*
X112855654Y-47943452D01*
X112903273Y-48038690D01*
X112950892Y-48086309D01*
X113046130Y-48133928D01*
X113236607Y-48133928D01*
X113331845Y-48086309D01*
X113379464Y-48038690D01*
X113427083Y-47943452D01*
X113998511Y-47943452D02*
X113903273Y-47895833D01*
X113855654Y-47848214D01*
X113808035Y-47752976D01*
X113808035Y-47705357D01*
X113855654Y-47610119D01*
X113903273Y-47562500D01*
X113998511Y-47514880D01*
X114188988Y-47514880D01*
X114284226Y-47562500D01*
X114331845Y-47610119D01*
X114379464Y-47705357D01*
X114379464Y-47752976D01*
X114331845Y-47848214D01*
X114284226Y-47895833D01*
X114188988Y-47943452D01*
X113998511Y-47943452D01*
X113903273Y-47991071D01*
X113855654Y-48038690D01*
X113808035Y-48133928D01*
X113808035Y-48324404D01*
X113855654Y-48419642D01*
X113903273Y-48467261D01*
X113998511Y-48514880D01*
X114188988Y-48514880D01*
X114284226Y-48467261D01*
X114331845Y-48419642D01*
X114379464Y-48324404D01*
X114379464Y-48133928D01*
X114331845Y-48038690D01*
X114284226Y-47991071D01*
X114188988Y-47943452D01*
X114712797Y-47514880D02*
X115379464Y-47514880D01*
X114950892Y-48514880D01*
X116236607Y-47514880D02*
X115760416Y-47514880D01*
X115712797Y-47991071D01*
X115760416Y-47943452D01*
X115855654Y-47895833D01*
X116093750Y-47895833D01*
X116188988Y-47943452D01*
X116236607Y-47991071D01*
X116284226Y-48086309D01*
X116284226Y-48324404D01*
X116236607Y-48419642D01*
X116188988Y-48467261D01*
X116093750Y-48514880D01*
X115855654Y-48514880D01*
X115760416Y-48467261D01*
X115712797Y-48419642D01*
X117474702Y-48514880D02*
X117474702Y-47848214D01*
X117474702Y-47943452D02*
X117522321Y-47895833D01*
X117617559Y-47848214D01*
X117760416Y-47848214D01*
X117855654Y-47895833D01*
X117903273Y-47991071D01*
X117903273Y-48514880D01*
X117903273Y-47991071D02*
X117950892Y-47895833D01*
X118046130Y-47848214D01*
X118188988Y-47848214D01*
X118284226Y-47895833D01*
X118331845Y-47991071D01*
X118331845Y-48514880D01*
X118808035Y-48514880D02*
X118808035Y-47848214D01*
X118808035Y-47943452D02*
X118855654Y-47895833D01*
X118950892Y-47848214D01*
X119093750Y-47848214D01*
X119188988Y-47895833D01*
X119236607Y-47991071D01*
X119236607Y-48514880D01*
X119236607Y-47991071D02*
X119284226Y-47895833D01*
X119379464Y-47848214D01*
X119522321Y-47848214D01*
X119617559Y-47895833D01*
X119665178Y-47991071D01*
X119665178Y-48514880D01*
D10*
X128587500Y-59031250D02*
X128587500Y-48626080D01*
X101600000Y-59031250D02*
X101600000Y-48626080D01*
X128587500Y-49212500D02*
X101600000Y-49212500D01*
X128587500Y-49212500D02*
X101600000Y-49212500D01*
X128587500Y-49212500D02*
X127460996Y-48626079D01*
X128587500Y-49212500D02*
X127460996Y-49798921D01*
X101600000Y-49212500D02*
X102726504Y-49798921D01*
X101600000Y-49212500D02*
X102726504Y-48626079D01*
D11*
X130794642Y-36402380D02*
X130604166Y-36402380D01*
X130508928Y-36450000D01*
X130461309Y-36497619D01*
X130366071Y-36640476D01*
X130318452Y-36830952D01*
X130318452Y-37211904D01*
X130366071Y-37307142D01*
X130413690Y-37354761D01*
X130508928Y-37402380D01*
X130699404Y-37402380D01*
X130794642Y-37354761D01*
X130842261Y-37307142D01*
X130889880Y-37211904D01*
X130889880Y-36973809D01*
X130842261Y-36878571D01*
X130794642Y-36830952D01*
X130699404Y-36783333D01*
X130508928Y-36783333D01*
X130413690Y-36830952D01*
X130366071Y-36878571D01*
X130318452Y-36973809D01*
X131747023Y-36402380D02*
X131556547Y-36402380D01*
X131461309Y-36450000D01*
X131413690Y-36497619D01*
X131318452Y-36640476D01*
X131270833Y-36830952D01*
X131270833Y-37211904D01*
X131318452Y-37307142D01*
X131366071Y-37354761D01*
X131461309Y-37402380D01*
X131651785Y-37402380D01*
X131747023Y-37354761D01*
X131794642Y-37307142D01*
X131842261Y-37211904D01*
X131842261Y-36973809D01*
X131794642Y-36878571D01*
X131747023Y-36830952D01*
X131651785Y-36783333D01*
X131461309Y-36783333D01*
X131366071Y-36830952D01*
X131318452Y-36878571D01*
X131270833Y-36973809D01*
X132270833Y-37307142D02*
X132318452Y-37354761D01*
X132270833Y-37402380D01*
X132223214Y-37354761D01*
X132270833Y-37307142D01*
X132270833Y-37402380D01*
X133175595Y-36402380D02*
X132985119Y-36402380D01*
X132889880Y-36450000D01*
X132842261Y-36497619D01*
X132747023Y-36640476D01*
X132699404Y-36830952D01*
X132699404Y-37211904D01*
X132747023Y-37307142D01*
X132794642Y-37354761D01*
X132889880Y-37402380D01*
X133080357Y-37402380D01*
X133175595Y-37354761D01*
X133223214Y-37307142D01*
X133270833Y-37211904D01*
X133270833Y-36973809D01*
X133223214Y-36878571D01*
X133175595Y-36830952D01*
X133080357Y-36783333D01*
X132889880Y-36783333D01*
X132794642Y-36830952D01*
X132747023Y-36878571D01*
X132699404Y-36973809D01*
X133604166Y-36402380D02*
X134270833Y-36402380D01*
X133842261Y-37402380D01*
X135127976Y-36402380D02*
X134651785Y-36402380D01*
X134604166Y-36878571D01*
X134651785Y-36830952D01*
X134747023Y-36783333D01*
X134985119Y-36783333D01*
X135080357Y-36830952D01*
X135127976Y-36878571D01*
X135175595Y-36973809D01*
X135175595Y-37211904D01*
X135127976Y-37307142D01*
X135080357Y-37354761D01*
X134985119Y-37402380D01*
X134747023Y-37402380D01*
X134651785Y-37354761D01*
X134604166Y-37307142D01*
X135794642Y-36402380D02*
X135889880Y-36402380D01*
X135985119Y-36450000D01*
X136032738Y-36497619D01*
X136080357Y-36592857D01*
X136127976Y-36783333D01*
X136127976Y-37021428D01*
X136080357Y-37211904D01*
X136032738Y-37307142D01*
X135985119Y-37354761D01*
X135889880Y-37402380D01*
X135794642Y-37402380D01*
X135699404Y-37354761D01*
X135651785Y-37307142D01*
X135604166Y-37211904D01*
X135556547Y-37021428D01*
X135556547Y-36783333D01*
X135604166Y-36592857D01*
X135651785Y-36497619D01*
X135699404Y-36450000D01*
X135794642Y-36402380D01*
X137318452Y-37402380D02*
X137318452Y-36735714D01*
X137318452Y-36830952D02*
X137366071Y-36783333D01*
X137461309Y-36735714D01*
X137604166Y-36735714D01*
X137699404Y-36783333D01*
X137747023Y-36878571D01*
X137747023Y-37402380D01*
X137747023Y-36878571D02*
X137794642Y-36783333D01*
X137889880Y-36735714D01*
X138032738Y-36735714D01*
X138127976Y-36783333D01*
X138175595Y-36878571D01*
X138175595Y-37402380D01*
X138651785Y-37402380D02*
X138651785Y-36735714D01*
X138651785Y-36830952D02*
X138699404Y-36783333D01*
X138794642Y-36735714D01*
X138937500Y-36735714D01*
X139032738Y-36783333D01*
X139080357Y-36878571D01*
X139080357Y-37402380D01*
X139080357Y-36878571D02*
X139127976Y-36783333D01*
X139223214Y-36735714D01*
X139366071Y-36735714D01*
X139461309Y-36783333D01*
X139508928Y-36878571D01*
X139508928Y-37402380D01*
D10*
X101600000Y-59031250D02*
X101600000Y-37513580D01*
X168275000Y-59031250D02*
X168275000Y-37513580D01*
X101600000Y-38100000D02*
X168275000Y-38100000D01*
X101600000Y-38100000D02*
X168275000Y-38100000D01*
X101600000Y-38100000D02*
X102726504Y-38686421D01*
X101600000Y-38100000D02*
X102726504Y-37513579D01*
X168275000Y-38100000D02*
X167148496Y-37513579D01*
X168275000Y-38100000D02*
X167148496Y-38686421D01*
D11*
X172927380Y-92598363D02*
X172927380Y-93074553D01*
X173403571Y-93122172D01*
X173355952Y-93074553D01*
X173308333Y-92979315D01*
X173308333Y-92741220D01*
X173355952Y-92645982D01*
X173403571Y-92598363D01*
X173498809Y-92550744D01*
X173736904Y-92550744D01*
X173832142Y-92598363D01*
X173879761Y-92645982D01*
X173927380Y-92741220D01*
X173927380Y-92979315D01*
X173879761Y-93074553D01*
X173832142Y-93122172D01*
X172927380Y-92217410D02*
X172927380Y-91550744D01*
X173927380Y-91979315D01*
X173832142Y-91169791D02*
X173879761Y-91122172D01*
X173927380Y-91169791D01*
X173879761Y-91217410D01*
X173832142Y-91169791D01*
X173927380Y-91169791D01*
X173927380Y-90645982D02*
X173927380Y-90455505D01*
X173879761Y-90360267D01*
X173832142Y-90312648D01*
X173689285Y-90217410D01*
X173498809Y-90169791D01*
X173117857Y-90169791D01*
X173022619Y-90217410D01*
X172975000Y-90265029D01*
X172927380Y-90360267D01*
X172927380Y-90550744D01*
X172975000Y-90645982D01*
X173022619Y-90693601D01*
X173117857Y-90741220D01*
X173355952Y-90741220D01*
X173451190Y-90693601D01*
X173498809Y-90645982D01*
X173546428Y-90550744D01*
X173546428Y-90360267D01*
X173498809Y-90265029D01*
X173451190Y-90217410D01*
X173355952Y-90169791D01*
X173260714Y-89312648D02*
X173927380Y-89312648D01*
X172879761Y-89550744D02*
X173594047Y-89788839D01*
X173594047Y-89169791D01*
X172927380Y-88884077D02*
X172927380Y-88265029D01*
X173308333Y-88598363D01*
X173308333Y-88455505D01*
X173355952Y-88360267D01*
X173403571Y-88312648D01*
X173498809Y-88265029D01*
X173736904Y-88265029D01*
X173832142Y-88312648D01*
X173879761Y-88360267D01*
X173927380Y-88455505D01*
X173927380Y-88741220D01*
X173879761Y-88836458D01*
X173832142Y-88884077D01*
X173355952Y-87693601D02*
X173308333Y-87788839D01*
X173260714Y-87836458D01*
X173165476Y-87884077D01*
X173117857Y-87884077D01*
X173022619Y-87836458D01*
X172975000Y-87788839D01*
X172927380Y-87693601D01*
X172927380Y-87503125D01*
X172975000Y-87407886D01*
X173022619Y-87360267D01*
X173117857Y-87312648D01*
X173165476Y-87312648D01*
X173260714Y-87360267D01*
X173308333Y-87407886D01*
X173355952Y-87503125D01*
X173355952Y-87693601D01*
X173403571Y-87788839D01*
X173451190Y-87836458D01*
X173546428Y-87884077D01*
X173736904Y-87884077D01*
X173832142Y-87836458D01*
X173879761Y-87788839D01*
X173927380Y-87693601D01*
X173927380Y-87503125D01*
X173879761Y-87407886D01*
X173832142Y-87360267D01*
X173736904Y-87312648D01*
X173546428Y-87312648D01*
X173451190Y-87360267D01*
X173403571Y-87407886D01*
X173355952Y-87503125D01*
X173927380Y-86122172D02*
X173260714Y-86122172D01*
X173355952Y-86122172D02*
X173308333Y-86074553D01*
X173260714Y-85979315D01*
X173260714Y-85836458D01*
X173308333Y-85741220D01*
X173403571Y-85693601D01*
X173927380Y-85693601D01*
X173403571Y-85693601D02*
X173308333Y-85645982D01*
X173260714Y-85550744D01*
X173260714Y-85407886D01*
X173308333Y-85312648D01*
X173403571Y-85265029D01*
X173927380Y-85265029D01*
X173927380Y-84788839D02*
X173260714Y-84788839D01*
X173355952Y-84788839D02*
X173308333Y-84741220D01*
X173260714Y-84645982D01*
X173260714Y-84503125D01*
X173308333Y-84407886D01*
X173403571Y-84360267D01*
X173927380Y-84360267D01*
X173403571Y-84360267D02*
X173308333Y-84312648D01*
X173260714Y-84217410D01*
X173260714Y-84074553D01*
X173308333Y-83979315D01*
X173403571Y-83931696D01*
X173927380Y-83931696D01*
D10*
X168775000Y-59531250D02*
X175211420Y-59531250D01*
X168775000Y-117475000D02*
X175211420Y-117475000D01*
X174625000Y-59531250D02*
X174625000Y-117475000D01*
X174625000Y-59531250D02*
X174625000Y-117475000D01*
X174625000Y-59531250D02*
X174038579Y-60657754D01*
X174625000Y-59531250D02*
X175211421Y-60657754D01*
X174625000Y-117475000D02*
X175211421Y-116348496D01*
X174625000Y-117475000D02*
X174038579Y-116348496D01*
D11*
X188802380Y-60372172D02*
X188802380Y-60848363D01*
X189278571Y-60895982D01*
X189230952Y-60848363D01*
X189183333Y-60753125D01*
X189183333Y-60515029D01*
X189230952Y-60419791D01*
X189278571Y-60372172D01*
X189373809Y-60324553D01*
X189611904Y-60324553D01*
X189707142Y-60372172D01*
X189754761Y-60419791D01*
X189802380Y-60515029D01*
X189802380Y-60753125D01*
X189754761Y-60848363D01*
X189707142Y-60895982D01*
X189707142Y-59895982D02*
X189754761Y-59848363D01*
X189802380Y-59895982D01*
X189754761Y-59943601D01*
X189707142Y-59895982D01*
X189802380Y-59895982D01*
X188802380Y-58943601D02*
X188802380Y-59419791D01*
X189278571Y-59467410D01*
X189230952Y-59419791D01*
X189183333Y-59324553D01*
X189183333Y-59086458D01*
X189230952Y-58991220D01*
X189278571Y-58943601D01*
X189373809Y-58895982D01*
X189611904Y-58895982D01*
X189707142Y-58943601D01*
X189754761Y-58991220D01*
X189802380Y-59086458D01*
X189802380Y-59324553D01*
X189754761Y-59419791D01*
X189707142Y-59467410D01*
X188802380Y-57991220D02*
X188802380Y-58467410D01*
X189278571Y-58515029D01*
X189230952Y-58467410D01*
X189183333Y-58372172D01*
X189183333Y-58134077D01*
X189230952Y-58038839D01*
X189278571Y-57991220D01*
X189373809Y-57943601D01*
X189611904Y-57943601D01*
X189707142Y-57991220D01*
X189754761Y-58038839D01*
X189802380Y-58134077D01*
X189802380Y-58372172D01*
X189754761Y-58467410D01*
X189707142Y-58515029D01*
X188802380Y-57086458D02*
X188802380Y-57276934D01*
X188850000Y-57372172D01*
X188897619Y-57419791D01*
X189040476Y-57515029D01*
X189230952Y-57562648D01*
X189611904Y-57562648D01*
X189707142Y-57515029D01*
X189754761Y-57467410D01*
X189802380Y-57372172D01*
X189802380Y-57181696D01*
X189754761Y-57086458D01*
X189707142Y-57038839D01*
X189611904Y-56991220D01*
X189373809Y-56991220D01*
X189278571Y-57038839D01*
X189230952Y-57086458D01*
X189183333Y-57181696D01*
X189183333Y-57372172D01*
X189230952Y-57467410D01*
X189278571Y-57515029D01*
X189373809Y-57562648D01*
X188802380Y-56657886D02*
X188802380Y-56038839D01*
X189183333Y-56372172D01*
X189183333Y-56229315D01*
X189230952Y-56134077D01*
X189278571Y-56086458D01*
X189373809Y-56038839D01*
X189611904Y-56038839D01*
X189707142Y-56086458D01*
X189754761Y-56134077D01*
X189802380Y-56229315D01*
X189802380Y-56515029D01*
X189754761Y-56610267D01*
X189707142Y-56657886D01*
X189802380Y-54848363D02*
X189135714Y-54848363D01*
X189230952Y-54848363D02*
X189183333Y-54800744D01*
X189135714Y-54705505D01*
X189135714Y-54562648D01*
X189183333Y-54467410D01*
X189278571Y-54419791D01*
X189802380Y-54419791D01*
X189278571Y-54419791D02*
X189183333Y-54372172D01*
X189135714Y-54276934D01*
X189135714Y-54134077D01*
X189183333Y-54038839D01*
X189278571Y-53991220D01*
X189802380Y-53991220D01*
X189802380Y-53515029D02*
X189135714Y-53515029D01*
X189230952Y-53515029D02*
X189183333Y-53467410D01*
X189135714Y-53372172D01*
X189135714Y-53229315D01*
X189183333Y-53134077D01*
X189278571Y-53086458D01*
X189802380Y-53086458D01*
X189278571Y-53086458D02*
X189183333Y-53038839D01*
X189135714Y-52943601D01*
X189135714Y-52800744D01*
X189183333Y-52705505D01*
X189278571Y-52657886D01*
X189802380Y-52657886D01*
D10*
X141787500Y-53975000D02*
X191086420Y-53975000D01*
X141787500Y-59531250D02*
X191086420Y-59531250D01*
X190500000Y-53975000D02*
X190500000Y-59531250D01*
X190500000Y-53975000D02*
X190500000Y-59531250D01*
X190500000Y-53975000D02*
X189913579Y-55101504D01*
X190500000Y-53975000D02*
X191086421Y-55101504D01*
X190500000Y-59531250D02*
X191086421Y-58404746D01*
X190500000Y-59531250D02*
X189913579Y-58404746D01*
D11*
X150162202Y-47610119D02*
X150209821Y-47562500D01*
X150305059Y-47514880D01*
X150543154Y-47514880D01*
X150638392Y-47562500D01*
X150686011Y-47610119D01*
X150733630Y-47705357D01*
X150733630Y-47800595D01*
X150686011Y-47943452D01*
X150114583Y-48514880D01*
X150733630Y-48514880D01*
X151590773Y-47514880D02*
X151400297Y-47514880D01*
X151305059Y-47562500D01*
X151257440Y-47610119D01*
X151162202Y-47752976D01*
X151114583Y-47943452D01*
X151114583Y-48324404D01*
X151162202Y-48419642D01*
X151209821Y-48467261D01*
X151305059Y-48514880D01*
X151495535Y-48514880D01*
X151590773Y-48467261D01*
X151638392Y-48419642D01*
X151686011Y-48324404D01*
X151686011Y-48086309D01*
X151638392Y-47991071D01*
X151590773Y-47943452D01*
X151495535Y-47895833D01*
X151305059Y-47895833D01*
X151209821Y-47943452D01*
X151162202Y-47991071D01*
X151114583Y-48086309D01*
X152114583Y-48419642D02*
X152162202Y-48467261D01*
X152114583Y-48514880D01*
X152066964Y-48467261D01*
X152114583Y-48419642D01*
X152114583Y-48514880D01*
X152638392Y-48514880D02*
X152828869Y-48514880D01*
X152924107Y-48467261D01*
X152971726Y-48419642D01*
X153066964Y-48276785D01*
X153114583Y-48086309D01*
X153114583Y-47705357D01*
X153066964Y-47610119D01*
X153019345Y-47562500D01*
X152924107Y-47514880D01*
X152733630Y-47514880D01*
X152638392Y-47562500D01*
X152590773Y-47610119D01*
X152543154Y-47705357D01*
X152543154Y-47943452D01*
X152590773Y-48038690D01*
X152638392Y-48086309D01*
X152733630Y-48133928D01*
X152924107Y-48133928D01*
X153019345Y-48086309D01*
X153066964Y-48038690D01*
X153114583Y-47943452D01*
X153686011Y-47943452D02*
X153590773Y-47895833D01*
X153543154Y-47848214D01*
X153495535Y-47752976D01*
X153495535Y-47705357D01*
X153543154Y-47610119D01*
X153590773Y-47562500D01*
X153686011Y-47514880D01*
X153876488Y-47514880D01*
X153971726Y-47562500D01*
X154019345Y-47610119D01*
X154066964Y-47705357D01*
X154066964Y-47752976D01*
X154019345Y-47848214D01*
X153971726Y-47895833D01*
X153876488Y-47943452D01*
X153686011Y-47943452D01*
X153590773Y-47991071D01*
X153543154Y-48038690D01*
X153495535Y-48133928D01*
X153495535Y-48324404D01*
X153543154Y-48419642D01*
X153590773Y-48467261D01*
X153686011Y-48514880D01*
X153876488Y-48514880D01*
X153971726Y-48467261D01*
X154019345Y-48419642D01*
X154066964Y-48324404D01*
X154066964Y-48133928D01*
X154019345Y-48038690D01*
X153971726Y-47991071D01*
X153876488Y-47943452D01*
X154400297Y-47514880D02*
X155066964Y-47514880D01*
X154638392Y-48514880D01*
X155924107Y-47514880D02*
X155447916Y-47514880D01*
X155400297Y-47991071D01*
X155447916Y-47943452D01*
X155543154Y-47895833D01*
X155781250Y-47895833D01*
X155876488Y-47943452D01*
X155924107Y-47991071D01*
X155971726Y-48086309D01*
X155971726Y-48324404D01*
X155924107Y-48419642D01*
X155876488Y-48467261D01*
X155781250Y-48514880D01*
X155543154Y-48514880D01*
X155447916Y-48467261D01*
X155400297Y-48419642D01*
X157162202Y-48514880D02*
X157162202Y-47848214D01*
X157162202Y-47943452D02*
X157209821Y-47895833D01*
X157305059Y-47848214D01*
X157447916Y-47848214D01*
X157543154Y-47895833D01*
X157590773Y-47991071D01*
X157590773Y-48514880D01*
X157590773Y-47991071D02*
X157638392Y-47895833D01*
X157733630Y-47848214D01*
X157876488Y-47848214D01*
X157971726Y-47895833D01*
X158019345Y-47991071D01*
X158019345Y-48514880D01*
X158495535Y-48514880D02*
X158495535Y-47848214D01*
X158495535Y-47943452D02*
X158543154Y-47895833D01*
X158638392Y-47848214D01*
X158781250Y-47848214D01*
X158876488Y-47895833D01*
X158924107Y-47991071D01*
X158924107Y-48514880D01*
X158924107Y-47991071D02*
X158971726Y-47895833D01*
X159066964Y-47848214D01*
X159209821Y-47848214D01*
X159305059Y-47895833D01*
X159352678Y-47991071D01*
X159352678Y-48514880D01*
D10*
X168275000Y-59031250D02*
X168275000Y-48626080D01*
X141287500Y-59031250D02*
X141287500Y-48626080D01*
X168275000Y-49212500D02*
X141287500Y-49212500D01*
X168275000Y-49212500D02*
X141287500Y-49212500D01*
X168275000Y-49212500D02*
X167148496Y-48626079D01*
X168275000Y-49212500D02*
X167148496Y-49798921D01*
X141287500Y-49212500D02*
X142414004Y-49798921D01*
X141287500Y-49212500D02*
X142414004Y-48626079D01*
D11*
X180864880Y-89867857D02*
X180864880Y-90058333D01*
X180912500Y-90153571D01*
X180960119Y-90201190D01*
X181102976Y-90296428D01*
X181293452Y-90344047D01*
X181674404Y-90344047D01*
X181769642Y-90296428D01*
X181817261Y-90248809D01*
X181864880Y-90153571D01*
X181864880Y-89963095D01*
X181817261Y-89867857D01*
X181769642Y-89820238D01*
X181674404Y-89772619D01*
X181436309Y-89772619D01*
X181341071Y-89820238D01*
X181293452Y-89867857D01*
X181245833Y-89963095D01*
X181245833Y-90153571D01*
X181293452Y-90248809D01*
X181341071Y-90296428D01*
X181436309Y-90344047D01*
X180864880Y-89439285D02*
X180864880Y-88820238D01*
X181245833Y-89153571D01*
X181245833Y-89010714D01*
X181293452Y-88915476D01*
X181341071Y-88867857D01*
X181436309Y-88820238D01*
X181674404Y-88820238D01*
X181769642Y-88867857D01*
X181817261Y-88915476D01*
X181864880Y-89010714D01*
X181864880Y-89296428D01*
X181817261Y-89391666D01*
X181769642Y-89439285D01*
X181769642Y-88391666D02*
X181817261Y-88344047D01*
X181864880Y-88391666D01*
X181817261Y-88439285D01*
X181769642Y-88391666D01*
X181864880Y-88391666D01*
X180864880Y-87439285D02*
X180864880Y-87915476D01*
X181341071Y-87963095D01*
X181293452Y-87915476D01*
X181245833Y-87820238D01*
X181245833Y-87582142D01*
X181293452Y-87486904D01*
X181341071Y-87439285D01*
X181436309Y-87391666D01*
X181674404Y-87391666D01*
X181769642Y-87439285D01*
X181817261Y-87486904D01*
X181864880Y-87582142D01*
X181864880Y-87820238D01*
X181817261Y-87915476D01*
X181769642Y-87963095D01*
X180864880Y-86772619D02*
X180864880Y-86677380D01*
X180912500Y-86582142D01*
X180960119Y-86534523D01*
X181055357Y-86486904D01*
X181245833Y-86439285D01*
X181483928Y-86439285D01*
X181674404Y-86486904D01*
X181769642Y-86534523D01*
X181817261Y-86582142D01*
X181864880Y-86677380D01*
X181864880Y-86772619D01*
X181817261Y-86867857D01*
X181769642Y-86915476D01*
X181674404Y-86963095D01*
X181483928Y-87010714D01*
X181245833Y-87010714D01*
X181055357Y-86963095D01*
X180960119Y-86915476D01*
X180912500Y-86867857D01*
X180864880Y-86772619D01*
X180864880Y-85820238D02*
X180864880Y-85725000D01*
X180912500Y-85629761D01*
X180960119Y-85582142D01*
X181055357Y-85534523D01*
X181245833Y-85486904D01*
X181483928Y-85486904D01*
X181674404Y-85534523D01*
X181769642Y-85582142D01*
X181817261Y-85629761D01*
X181864880Y-85725000D01*
X181864880Y-85820238D01*
X181817261Y-85915476D01*
X181769642Y-85963095D01*
X181674404Y-86010714D01*
X181483928Y-86058333D01*
X181245833Y-86058333D01*
X181055357Y-86010714D01*
X180960119Y-85963095D01*
X180912500Y-85915476D01*
X180864880Y-85820238D01*
X180864880Y-84867857D02*
X180864880Y-84772619D01*
X180912500Y-84677380D01*
X180960119Y-84629761D01*
X181055357Y-84582142D01*
X181245833Y-84534523D01*
X181483928Y-84534523D01*
X181674404Y-84582142D01*
X181769642Y-84629761D01*
X181817261Y-84677380D01*
X181864880Y-84772619D01*
X181864880Y-84867857D01*
X181817261Y-84963095D01*
X181769642Y-85010714D01*
X181674404Y-85058333D01*
X181483928Y-85105952D01*
X181245833Y-85105952D01*
X181055357Y-85058333D01*
X180960119Y-85010714D01*
X180912500Y-84963095D01*
X180864880Y-84867857D01*
X181864880Y-83344047D02*
X181198214Y-83344047D01*
X181293452Y-83344047D02*
X181245833Y-83296428D01*
X181198214Y-83201190D01*
X181198214Y-83058333D01*
X181245833Y-82963095D01*
X181341071Y-82915476D01*
X181864880Y-82915476D01*
X181341071Y-82915476D02*
X181245833Y-82867857D01*
X181198214Y-82772619D01*
X181198214Y-82629761D01*
X181245833Y-82534523D01*
X181341071Y-82486904D01*
X181864880Y-82486904D01*
X181864880Y-82010714D02*
X181198214Y-82010714D01*
X181293452Y-82010714D02*
X181245833Y-81963095D01*
X181198214Y-81867857D01*
X181198214Y-81725000D01*
X181245833Y-81629761D01*
X181341071Y-81582142D01*
X181864880Y-81582142D01*
X181341071Y-81582142D02*
X181245833Y-81534523D01*
X181198214Y-81439285D01*
X181198214Y-81296428D01*
X181245833Y-81201190D01*
X181341071Y-81153571D01*
X181864880Y-81153571D01*
D10*
X141787500Y-53975000D02*
X183148920Y-53975000D01*
X141787500Y-117475000D02*
X183148920Y-117475000D01*
X182562500Y-53975000D02*
X182562500Y-117475000D01*
X182562500Y-53975000D02*
X182562500Y-117475000D01*
X182562500Y-53975000D02*
X181976079Y-55101504D01*
X182562500Y-53975000D02*
X183148921Y-55101504D01*
X182562500Y-117475000D02*
X183148921Y-116348496D01*
X182562500Y-117475000D02*
X181976079Y-116348496D01*
D11*
X130889880Y-44546130D02*
X130318452Y-44546130D01*
X130604166Y-44546130D02*
X130604166Y-43546130D01*
X130508928Y-43688988D01*
X130413690Y-43784226D01*
X130318452Y-43831845D01*
X131270833Y-43641369D02*
X131318452Y-43593750D01*
X131413690Y-43546130D01*
X131651785Y-43546130D01*
X131747023Y-43593750D01*
X131794642Y-43641369D01*
X131842261Y-43736607D01*
X131842261Y-43831845D01*
X131794642Y-43974702D01*
X131223214Y-44546130D01*
X131842261Y-44546130D01*
X132270833Y-44450892D02*
X132318452Y-44498511D01*
X132270833Y-44546130D01*
X132223214Y-44498511D01*
X132270833Y-44450892D01*
X132270833Y-44546130D01*
X132651785Y-43546130D02*
X133318452Y-43546130D01*
X132889880Y-44546130D01*
X133889880Y-43546130D02*
X133985119Y-43546130D01*
X134080357Y-43593750D01*
X134127976Y-43641369D01*
X134175595Y-43736607D01*
X134223214Y-43927083D01*
X134223214Y-44165178D01*
X134175595Y-44355654D01*
X134127976Y-44450892D01*
X134080357Y-44498511D01*
X133985119Y-44546130D01*
X133889880Y-44546130D01*
X133794642Y-44498511D01*
X133747023Y-44450892D01*
X133699404Y-44355654D01*
X133651785Y-44165178D01*
X133651785Y-43927083D01*
X133699404Y-43736607D01*
X133747023Y-43641369D01*
X133794642Y-43593750D01*
X133889880Y-43546130D01*
X134842261Y-43546130D02*
X134937500Y-43546130D01*
X135032738Y-43593750D01*
X135080357Y-43641369D01*
X135127976Y-43736607D01*
X135175595Y-43927083D01*
X135175595Y-44165178D01*
X135127976Y-44355654D01*
X135080357Y-44450892D01*
X135032738Y-44498511D01*
X134937500Y-44546130D01*
X134842261Y-44546130D01*
X134747023Y-44498511D01*
X134699404Y-44450892D01*
X134651785Y-44355654D01*
X134604166Y-44165178D01*
X134604166Y-43927083D01*
X134651785Y-43736607D01*
X134699404Y-43641369D01*
X134747023Y-43593750D01*
X134842261Y-43546130D01*
X135794642Y-43546130D02*
X135889880Y-43546130D01*
X135985119Y-43593750D01*
X136032738Y-43641369D01*
X136080357Y-43736607D01*
X136127976Y-43927083D01*
X136127976Y-44165178D01*
X136080357Y-44355654D01*
X136032738Y-44450892D01*
X135985119Y-44498511D01*
X135889880Y-44546130D01*
X135794642Y-44546130D01*
X135699404Y-44498511D01*
X135651785Y-44450892D01*
X135604166Y-44355654D01*
X135556547Y-44165178D01*
X135556547Y-43927083D01*
X135604166Y-43736607D01*
X135651785Y-43641369D01*
X135699404Y-43593750D01*
X135794642Y-43546130D01*
X137318452Y-44546130D02*
X137318452Y-43879464D01*
X137318452Y-43974702D02*
X137366071Y-43927083D01*
X137461309Y-43879464D01*
X137604166Y-43879464D01*
X137699404Y-43927083D01*
X137747023Y-44022321D01*
X137747023Y-44546130D01*
X137747023Y-44022321D02*
X137794642Y-43927083D01*
X137889880Y-43879464D01*
X138032738Y-43879464D01*
X138127976Y-43927083D01*
X138175595Y-44022321D01*
X138175595Y-44546130D01*
X138651785Y-44546130D02*
X138651785Y-43879464D01*
X138651785Y-43974702D02*
X138699404Y-43927083D01*
X138794642Y-43879464D01*
X138937500Y-43879464D01*
X139032738Y-43927083D01*
X139080357Y-44022321D01*
X139080357Y-44546130D01*
X139080357Y-44022321D02*
X139127976Y-43927083D01*
X139223214Y-43879464D01*
X139366071Y-43879464D01*
X139461309Y-43927083D01*
X139508928Y-44022321D01*
X139508928Y-44546130D01*
D10*
X128587500Y-53475000D02*
X128587500Y-44657330D01*
X141287500Y-53475000D02*
X141287500Y-44657330D01*
X128587500Y-45243750D02*
X141287500Y-45243750D01*
X128587500Y-45243750D02*
X141287500Y-45243750D01*
X128587500Y-45243750D02*
X129714004Y-45830171D01*
X128587500Y-45243750D02*
X129714004Y-44657329D01*
X141287500Y-45243750D02*
X140160996Y-44657329D01*
X141287500Y-45243750D02*
X140160996Y-45830171D01*
M02*
