M48
; DRILL file {KiCad (6.0.10)} date Wed Jan 18 13:12:32 2023
; FORMAT={-:-/ absolute / inch / decimal}
; #@! TF.CreationDate,2023-01-18T13:12:32+09:00
; #@! TF.GenerationSoftware,Kicad,Pcbnew,(6.0.10)
; #@! TF.FileFunction,Plated,1,2,PTH
FMAT,2
INCH
; #@! TA.AperFunction,Plated,PTH,ViaDrill
T1C0.0157
; #@! TA.AperFunction,Plated,PTH,ComponentDrill
T2C0.0236
%
G90
G05
T1
X4.8598Y-4.0403
X4.9766Y-3.4849
X5.0333Y-3.5278
X5.0335Y-3.7992
X5.0392Y-3.8495
X5.0894Y-3.4844
X5.0894Y-3.8107
X5.1511Y-4.3273
X5.2476Y-3.6076
X5.2886Y-2.4942
X5.3598Y-2.4934
X5.4075Y-3.7276
X5.4468Y-2.502
X5.5399Y-2.5013
X5.5632Y-3.8629
X5.6406Y-3.432
X5.6441Y-2.9564
X5.715Y-3.6674
X5.7465Y-3.432
X5.7492Y-2.8513
T2
G00X5.1424Y-2.1797
M15
G01X5.1424Y-2.2033
M16
G05
G00X5.1424Y-2.3344
M15
G01X5.1424Y-2.3778
M16
G05
G00X5.4826Y-2.1797
M15
G01X5.4826Y-2.2033
M16
G05
G00X5.4826Y-2.3344
M15
G01X5.4826Y-2.3778
M16
G05
T0
M30
